<svg width="30" height="30" viewBox="0 0 30 30" fill="none" xmlns="http://www.w3.org/2000/svg">
<path d="M23.2664 0H6.73363C3.01475 0 0 3.01475 0 6.73363V23.2664C0 26.9852 3.01475 30 6.73363 30H23.2664C26.9852 30 30 26.9852 30 23.2664V6.73363C30 3.01475 26.9852 0 23.2664 0Z" fill="#00C7FF"/>
<path fill-rule="evenodd" clip-rule="evenodd" d="M12.1996 18.8188C11.4908 18.8013 10.8051 18.5638 10.2373 18.1394C9.66944 17.7149 9.24762 17.1244 9.0302 16.4496C9.51275 16.5565 10.0128 16.5565 10.4954 16.4496C10.039 16.3424 9.60966 16.1421 9.23418 15.8614C8.8587 15.5807 8.54517 15.2255 8.31319 14.8182C7.97383 14.2733 7.80051 13.6414 7.8144 12.9997C8.2802 13.2561 8.80011 13.3985 9.33155 13.4153C8.61834 12.9245 8.1172 12.182 7.92871 11.337C7.73815 10.4971 7.87569 9.61613 8.31319 8.87427C9.16917 9.92967 10.2362 10.7947 11.4458 11.4138C12.6555 12.0329 13.9811 12.3926 15.3378 12.4697C15.3378 12.3346 15.3378 12.2203 15.2858 12.0956C15.1924 11.3883 15.3232 10.6696 15.6599 10.0406C15.9966 9.4116 16.5221 8.90413 17.1625 8.58967C17.8029 8.27522 18.5258 8.16964 19.2294 8.28781C19.933 8.40598 20.5817 8.74194 21.0842 9.24836C21.1061 9.27243 21.1341 9.29001 21.1653 9.29918C21.1964 9.30834 21.2295 9.30874 21.2609 9.30032C21.9579 9.1521 22.6275 8.89617 23.2456 8.54174C22.9973 9.30336 22.4947 9.95643 21.822 10.3914C22.4779 10.3185 23.1191 10.1468 23.7237 9.88224L23.3807 10.3914C23.0203 10.834 22.6047 11.2286 22.1442 11.5656C22.127 11.5767 22.1131 11.5922 22.104 11.6105C22.0949 11.6288 22.0908 11.6492 22.0922 11.6696C22.1122 12.1761 22.0913 12.6835 22.0299 13.1867C21.8975 14.2384 21.5994 15.2625 21.1466 16.221C20.6879 17.2144 20.0662 18.1241 19.3073 18.9124C18.0421 20.2322 16.4092 21.141 14.6208 21.5206C13.9955 21.6565 13.3588 21.733 12.7191 21.7492C10.7986 21.8149 8.9023 21.3046 7.27405 20.284L7.19092 20.2321C8.34321 20.3564 9.50826 20.1884 10.5785 19.7437C11.1589 19.5115 11.7044 19.2003 12.1996 18.8188Z" fill="white"/>
</svg>
