<svg width="30" height="30" viewBox="0 0 30 30" fill="none" xmlns="http://www.w3.org/2000/svg">
<path d="M23.2664 0H6.73363C3.01475 0 0 3.01475 0 6.73363V23.2664C0 26.9852 3.01475 30 6.73363 30H23.2664C26.9852 30 30 26.9852 30 23.2664V6.73363C30 3.01475 26.9852 0 23.2664 0Z" fill="#FD3832"/>
<path fill-rule="evenodd" clip-rule="evenodd" d="M8.31309 20.5437C8.01322 20.4528 7.73961 20.2911 7.51534 20.0723C7.29108 19.8535 7.12275 19.5839 7.02455 19.2864C6.46342 17.7484 6.29715 11.3265 7.37786 10.0588C7.73754 9.64637 8.24536 9.39246 8.79109 9.35216C11.6903 9.04042 20.6477 9.08199 21.6764 9.45608C21.9658 9.54995 22.2301 9.70809 22.4497 9.91864C22.6692 10.1292 22.8383 10.3867 22.9442 10.6719C23.5573 12.2618 23.5781 18.0394 22.8611 19.5669C22.6709 19.9645 22.3524 20.2866 21.957 20.4814C20.8763 21.0217 9.7471 21.0113 8.31309 20.5437V20.5437ZM12.9165 17.5302L18.1122 14.8284L12.9165 12.1059V17.5302Z" fill="white"/>
</svg>
