<svg width="40" height="40" viewBox="0 0 40 40" fill="none" xmlns="http://www.w3.org/2000/svg">
<path d="M40 20C40 31.0469 31.0469 40 20 40C8.95313 40 0 31.0469 0 20C0 8.95313 8.95313 0 20 0C31.0469 0 40 8.95313 40 20ZM13.75 13.125V26.875C13.75 27.5547 14.1172 28.1797 14.7109 28.5078C15.2969 28.8437 16.0234 28.8281 16.6016 28.4766L27.8516 21.6016C28.4062 21.2578 28.75 20.6562 28.75 20C28.75 19.3438 28.4062 18.7422 27.8516 18.3984L16.6016 11.5234C16.0234 11.1016 15.2969 11.1563 14.7109 11.4922C14.1172 11.8203 13.75 12.4453 13.75 13.125Z" fill="#0C4083"/>
<path d="M25.8887 18.7989C26.3076 19.0567 26.5625 19.5108 26.5625 20C26.5625 20.4893 26.3076 20.9434 25.8887 21.1748L17.4521 26.3311C17.0179 26.6211 16.4744 26.6328 16.0309 26.3838C15.5872 26.1348 15.3125 25.666 15.3125 25.1563V14.8438C15.3125 14.3352 15.5872 13.8661 16.0309 13.6171C16.4744 13.3684 17.0179 13.3786 17.4521 13.6438L25.8887 18.7989Z" fill="white"/>
</svg>
